<svg height="640" viewBox="0 0 480 480" width="640" xmlns="http://www.w3.org/2000/svg"><path d="M112 208h16v32h-16zm0 0M232 432h16v16h-16zm0 0M240 368h16v16h-16zm0 0M144 224h64v32h16v-40a8 8 0 00-8-8h-64a8 8 0 00-8 8zm0 0M240 240h40v16h-40zm0 0M152 192h64a8 8 0 008-8v-16h-16v8h-64v8a8 8 0 008 8zm0 0M424 480V320.352a87.8 87.8 0 00-21.602-57.778l-12.238-14.726-12.32 10.207 12.344 14.89A71.984 71.984 0 01408 320.352V480zm0 0"/><path d="M320 480h8v-16a7.995 7.995 0 00-1.754-5c-17.36-21.54-19.7-51.535-5.887-75.504l6.586-11.527a8 8 0 00-1.289-9.602l-48-48c-7.71-7.957-7.61-20.629.223-28.46 7.836-7.837 20.508-7.938 28.465-.227l64 64 11.312-11.313L368 324.687V264h-16v44.688L331.312 288H336v-16h-21.215c-13.277-10.816-32.324-10.816-45.601 0H240v16h17.895c-1.782 5.133-2.391 10.602-1.782 16H240v16h21.727a36.233 36.233 0 004.617 5.656L276.688 336H240v16h52.688l16 16H272v16h30.398a84.292 84.292 0 00-5.16 16H240v16h55.617a82.66 82.66 0 0014.64 48H152c-13.254 0-24-10.746-24-24v-8h-16v8c.027 22.082 17.918 39.973 40 40zm0 0M32 160h37.602l45.984 30.656A7.998 7.998 0 00128 184v-24h64c17.672 0 32-14.328 32-32V32c0-17.672-14.328-32-32-32H32C14.328 0 0 14.328 0 32v96c0 17.672 14.328 32 32 32zm160-16h-72a8 8 0 00-8 8v17.047l-35.559-23.703A8.061 8.061 0 0072 144H32a16 16 0 01-15.695-12.992l63.304-63.305 50.399 57.602a8.002 8.002 0 0011.015.976l34.403-27.527 32.285 32.285A16.002 16.002 0 01192 144zM16 32c0-8.836 7.164-16 16-16h160c8.836 0 16 7.164 16 16v76.688l-26.344-26.344a7.997 7.997 0 00-10.656-.59l-34.016 27.2-50.968-58.227A8.002 8.002 0 0080.266 48a8.115 8.115 0 00-5.922 2.344L16 108.687zm0 0"/><path d="M144 80c13.254 0 24-10.746 24-24s-10.746-24-24-24-24 10.746-24 24 10.746 24 24 24zm0-32a8 8 0 110 16 8 8 0 010-16zm0 0M480 136c0-13.254-10.746-24-24-24h-88V72c-.027-22.082-17.918-39.973-40-40h-88v16h88c13.254 0 24 10.746 24 24v8H240v16h112v16h-72c-13.254 0-24 10.746-24 24v64c0 13.254 10.746 24 24 24h48v24c0 3.234 1.95 6.152 4.938 7.39s6.43.551 8.718-1.734L371.312 224H456c13.254 0 24-10.746 24-24zm-16 64a8 8 0 01-8 8h-88a8.001 8.001 0 00-5.656 2.344L344 228.688V216a8 8 0 00-8-8h-56a8 8 0 01-8-8v-64a8 8 0 018-8h176a8 8 0 018 8zm0 0"/><path d="M288 144h32v16h-32zm0 0M336 144h112v16H336zm0 0M288 176h80v16h-80zm0 0M384 176h16v16h-16zm0 0M416 176h32v16h-32zm0 0M64 272c-17.672 0-32 14.328-32 32v80c0 17.672 14.328 32 32 32h128c17.672 0 32-14.328 32-32v-80c0-17.672-14.328-32-32-32h-32v-24a8.002 8.002 0 00-12.441-6.656L101.602 272zm44.441 14.656L144 262.953V280a8 8 0 008 8h40c8.836 0 16 7.164 16 16v80c0 8.836-7.164 16-16 16H64c-8.836 0-16-7.164-16-16v-80c0-8.836 7.164-16 16-16h40a8.061 8.061 0 004.441-1.344zm0 0"/><path d="M100 382.922a8.016 8.016 0 008 0l56-32a8.003 8.003 0 000-13.89l-56-32a7.988 7.988 0 00-8.016.011A7.992 7.992 0 0096 312v64a8.007 8.007 0 004 6.922zm12-57.137L143.871 344 112 362.215zm0 0M296 240h16v16h-16zm0 0"/></svg>