<svg viewBox="-10 0 511 512" xmlns="http://www.w3.org/2000/svg"><path d="M487.68 199.336l-76.442-45.89c.024-.247.035-.497.035-.75V7.558A7.557 7.557 0 00403.715 0h-33.262a7.56 7.56 0 000 15.117h25.703v129.274l-67.594-40.578h34.84a7.56 7.56 0 000-15.118h-58.797c-.367 0-.726.035-1.082.086l-28.687-17.219h88.562A7.56 7.56 0 00370.957 64a7.56 7.56 0 00-7.559-7.559H250.516c-.27 0-.532.016-.793.043l-38.567-23.152c-3.531-2.121-8.258-.937-10.375 2.59l-2.636 4.394h-76.641a7.56 7.56 0 00-7.559 7.559v80.633a7.562 7.562 0 007.559 7.558h19.16l-51.914 86.48V15.118h246.766a7.557 7.557 0 007.558-7.558A7.557 7.557 0 00335.516 0H81.19a7.56 7.56 0 00-7.562 7.559V247.73L1.579 367.754a7.56 7.56 0 002.589 10.371l221.223 132.8a7.642 7.642 0 005.722.852l88.504-22.101a7.643 7.643 0 004.649-3.446l50.476-84.078h28.973a7.564 7.564 0 007.562-7.562v-53.297l78.993-131.586a7.559 7.559 0 00-2.59-10.371zm-337.953-78.387h-20.66V55.434h60.003l-39.332 65.515h-.011zm95.425 371.738l19.918-33.175 33.18 19.918-5.473 1.363zm151.004-105.656H383.82l12.336-20.55zm-80.96 84.938L266.37 442.66A7.56 7.56 0 00256 445.25l-29.309 48.824L18.434 369.051 209.855 50.184l263.563 158.222zm0 0"/><path d="M261.43 137.574l55.304 33.2a7.56 7.56 0 0010.371-2.59 7.558 7.558 0 00-2.59-10.375l-55.304-33.2a7.56 7.56 0 00-7.781 12.965zm0 0M344.387 187.375l76.047 45.648c3.816 2.29 8.91.704 10.765-3.335 1.582-3.454.27-7.672-2.984-9.625l-76.047-45.653a7.56 7.56 0 00-7.781 12.965zm0 0M188.137 150l62.218 37.352a7.56 7.56 0 0010.371-2.59 7.553 7.553 0 00-2.59-10.371l-62.218-37.352A7.56 7.56 0 00188.137 150zm0 0M403.313 261.543l-117.524-70.555a7.558 7.558 0 00-10.371 2.594 7.56 7.56 0 002.59 10.371l117.523 70.55c3.817 2.29 8.914.704 10.766-3.335 1.586-3.453.273-7.672-2.985-9.625zm0 0M382.563 296.11L175.167 171.604a7.56 7.56 0 00-7.781 12.96L374.78 309.071c3.817 2.29 8.914.703 10.766-3.336 1.586-3.457.27-7.671-2.985-9.625zm0 0M361.813 330.672l-159-95.45a7.558 7.558 0 10-7.781 12.96l159 95.455c3.816 2.289 8.913.703 10.765-3.336 1.586-3.457.27-7.676-2.985-9.63zm0 0M125.887 253.7l124.437 74.698a7.56 7.56 0 007.781-12.96l-124.437-74.704a7.557 7.557 0 00-10.371 2.594 7.56 7.56 0 002.59 10.371zm0 0M341.063 365.238l-55.305-33.199a7.556 7.556 0 00-10.371 2.59 7.553 7.553 0 002.59 10.371l55.304 33.2c3.817 2.292 8.914.702 10.766-3.337 1.582-3.453.27-7.672-2.985-9.625zm0 0M105.137 288.262l48.39 29.05a7.556 7.556 0 0010.375-2.59 7.558 7.558 0 00-2.593-10.37L112.918 275.3a7.56 7.56 0 00-7.781 12.96zm0 0M320.313 399.805l-131.348-78.852a7.56 7.56 0 10-7.785 12.96l131.351 78.853c3.817 2.289 8.91.703 10.766-3.336 1.582-3.453.27-7.672-2.985-9.625zm0 0M299.563 434.371L92.167 309.867a7.559 7.559 0 00-7.781 12.961L291.78 447.332c3.813 2.29 8.91.703 10.762-3.336 1.586-3.453.273-7.672-2.98-9.625zm0 0M154.375 394.234l-82.957-49.8a7.558 7.558 0 10-7.781 12.96l82.957 49.801a7.497 7.497 0 003.883 1.082 7.56 7.56 0 003.898-14.043zm0 0M230.418 439.887l-48.39-29.051a7.559 7.559 0 00-10.372 2.59 7.553 7.553 0 002.59 10.37l48.39 29.052c3.817 2.289 8.915.703 10.766-3.336 1.586-3.453.274-7.672-2.984-9.625zm0 0"/></svg>