<svg height="640" viewBox="0 0 480 480" width="640" xmlns="http://www.w3.org/2000/svg"><path d="M16 384a55.912 55.912 0 0156-56h17.223l6.89 41.313a7.998 7.998 0 0013.543 4.343L144 339.312V480h16V339.312l34.344 34.344a8.005 8.005 0 007.492 2.125 8.006 8.006 0 005.75-5.254l8-24-15.203-5.054-3.918 11.71L171.312 328H200v-54.258a87.697 87.697 0 0039.496-64.512l.969-9.23H280a8 8 0 008-8v-64a8 8 0 00-8-8h-8C272 53.727 218.273 0 152 0S32 53.727 32 120h-8a8 8 0 00-8 8v64a8 8 0 008 8h8v24c0 1.453.395 2.875 1.145 4.121l24 40 13.71-8.242L48 221.785V200h15.535l.969 9.23A87.697 87.697 0 00104 273.742V312H72a71.918 71.918 0 00-50.934 21.066A71.918 71.918 0 000 384v96h16zm93.336-32.648L105.44 328h27.246zM184 312h-64v-29.977a88.656 88.656 0 0064 0zm88-128h-29.855l5.054-48H272zm-240 0v-48h24.8l5.055 48zm24.406-64H48C48 62.562 94.563 16 152 16s104 46.563 104 104h-8.406c-4.078-49.773-45.66-88.09-95.602-88.09-49.941 0-91.523 38.317-95.601 88.09zM152 48c41.617.066 76.246 32.012 79.664 73.488l-25.512-30.617a7.999 7.999 0 00-8.68-2.453 154.871 154.871 0 01-91.929 1.988l-7.352-2.101a8 8 0 00-8.847 3.254l-16.36 24.546C78.883 77 112.454 48.066 152 48zM80.418 207.559l-6.707-63.704 25.707-38.558 1.742.504a170.768 170.768 0 0096.13-.563l32.91 39.496-6.614 62.825c-3.879 36.629-34.77 64.421-71.602 64.421s-67.722-27.793-71.601-64.421zm0 0M288 448h16v32h-16zm0 0"/><path d="M120 160c0 8.836-7.164 16-16 16s-16-7.164-16-16 7.164-16 16-16 16 7.164 16 16zm0 0M216 160c0 8.836-7.164 16-16 16s-16-7.164-16-16 7.164-16 16-16 16 7.164 16 16zm0 0M160 200v-16h-11.055l10.254-20.426-14.32-7.148-16 32A8.002 8.002 0 00136 200zm0 0M178.344 202.344A46.94 46.94 0 01145.375 216H136v16h9.375a63.071 63.071 0 0044.281-18.344zm0 0M56 408h16v72H56zm0 0M232 416h16v64h-16zm0 0M472 288h-21.145a103.42 103.42 0 00-6.32-15.281l14.945-14.942a8.004 8.004 0 000-11.312l-33.945-33.945a8.004 8.004 0 00-11.312 0l-14.942 14.945a102.412 102.412 0 00-15.281-6.32V200a8 8 0 00-8-8h-48a8 8 0 00-8 8v21.145a103.42 103.42 0 00-15.281 6.32l-14.942-14.945a8.004 8.004 0 00-11.312 0l-33.945 33.945a8.004 8.004 0 000 11.312l14.953 14.942A101.46 101.46 0 00253.145 288H232a8 8 0 00-8 8v48a8 8 0 008 8h21.145a103.42 103.42 0 006.32 15.281l-14.945 14.942a8.004 8.004 0 000 11.312l33.945 33.945a8.004 8.004 0 0011.312 0l14.942-14.945a102.412 102.412 0 0015.281 6.32V440a8 8 0 008 8h48a8 8 0 008-8v-21.145a103.42 103.42 0 0015.281-6.32l14.942 14.945a8.004 8.004 0 0011.312 0l33.945-33.945a8.004 8.004 0 000-11.312l-14.953-14.942A101.46 101.46 0 00450.855 352H472a8 8 0 008-8v-48a8 8 0 00-8-8zm-8 48h-19.152a7.995 7.995 0 00-7.743 6 87.72 87.72 0 01-9.363 22.633 8.002 8.002 0 001.235 9.719l13.527 13.527-22.625 22.625-13.535-13.527a8.048 8.048 0 00-9.727-1.235A87.289 87.289 0 01374 405.105c-3.531.91-6 4.094-6 7.743V432h-32v-19.152a7.995 7.995 0 00-6-7.743 87.289 87.289 0 01-22.617-9.363 8.002 8.002 0 00-9.727 1.235l-13.535 13.527-22.625-22.625 13.527-13.535a8.002 8.002 0 001.235-9.727A87.289 87.289 0 01266.895 342a7.995 7.995 0 00-7.743-6H240v-32h19.152a7.995 7.995 0 007.743-6 87.72 87.72 0 019.363-22.633 8.002 8.002 0 00-1.235-9.719l-13.527-13.527 22.625-22.625 13.535 13.527a8.002 8.002 0 009.727 1.235A87.289 87.289 0 01330 234.895c3.531-.91 6-4.094 6-7.743V208h32v19.152a7.995 7.995 0 006 7.743 87.289 87.289 0 0122.617 9.363 8.002 8.002 0 009.727-1.235l13.535-13.527 22.625 22.625-13.527 13.535a8.002 8.002 0 00-1.235 9.727A87.289 87.289 0 01437.105 298c.91 3.531 4.094 6 7.743 6H464zm0 0"/><path d="M352 248c-39.766 0-72 32.234-72 72s32.234 72 72 72 72-32.234 72-72c-.043-39.746-32.254-71.957-72-72zm0 128c-30.93 0-56-25.07-56-56s25.07-56 56-56 56 25.07 56 56c-.04 30.91-25.09 55.96-56 56zm0 0"/><path d="M352 280c-22.09 0-40 17.91-40 40s17.91 40 40 40 40-17.91 40-40c-.027-22.082-17.918-39.973-40-40zm0 64c-13.254 0-24-10.746-24-24s10.746-24 24-24 24 10.746 24 24-10.746 24-24 24zm0 0"/></svg>