<svg height="512pt" viewBox="0 -15 512 512" width="512pt" xmlns="http://www.w3.org/2000/svg"><path d="M68.926 246.8H7.606A7.604 7.604 0 000 254.403v220.211c0 4.2 3.406 7.606 7.605 7.606h61.32c4.2 0 7.606-3.406 7.606-7.606v-69.492c0-4.2-3.406-7.601-7.605-7.601s-7.602 3.402-7.602 7.601v61.89H15.207V262.009h46.117v117.765a7.605 7.605 0 1015.207 0v-125.37c0-4.2-3.406-7.602-7.605-7.602zm0 0M177.793 317.563h-61.32a7.604 7.604 0 00-7.606 7.601v149.45c0 4.199 3.406 7.605 7.606 7.605h61.32a7.604 7.604 0 007.605-7.606V325.164c0-4.2-3.402-7.601-7.605-7.601zm-7.602 149.449h-46.117V332.77h46.117zm0 0M286.664 199.625H225.34a7.604 7.604 0 00-7.606 7.602v267.386c0 4.2 3.407 7.606 7.606 7.606h61.324c4.2 0 7.602-3.406 7.602-7.606V207.227a7.6 7.6 0 00-7.602-7.602zm-7.605 267.387H232.94v-252.18h46.118zm0 0M395.531 235.008h-61.324a7.604 7.604 0 00-7.605 7.601v232.004c0 4.2 3.406 7.606 7.605 7.606h61.324c4.2 0 7.602-3.406 7.602-7.606V242.61a7.6 7.6 0 00-7.602-7.601zm-7.605 232.004h-46.117V250.215h46.117zm0 0M504.395 128.863h-61.32a7.604 7.604 0 00-7.606 7.602V236.82a7.604 7.604 0 1015.207 0v-92.75h46.117v322.942h-46.117v-204.84a7.604 7.604 0 10-15.207 0v212.441c0 4.2 3.406 7.606 7.605 7.606h61.32c4.2 0 7.606-3.406 7.606-7.606V136.465c0-4.2-3.406-7.602-7.605-7.602zm0 0"/><path d="M452.195 69.875a38.064 38.064 0 0021.54 6.656c21.1 0 38.265-17.168 38.265-38.265C512 17.164 494.836 0 473.734 0S435.47 17.164 435.47 38.266a38.037 38.037 0 006.117 20.714l-55.184 53.817a38.039 38.039 0 00-21.535-6.652c-14.262 0-26.715 7.847-33.297 19.445l-37.562-12.2a38.32 38.32 0 00.258-4.363c0-21.097-17.168-38.265-38.266-38.265-21.102 0-38.266 17.168-38.266 38.265 0 8.352 2.7 16.086 7.258 22.383l-58.015 62.848a38.06 38.06 0 00-19.844-5.559c-10.672 0-20.332 4.395-27.278 11.465l-46.011-29.902a38.07 38.07 0 002.687-14.059c0-21.101-17.168-38.266-38.27-38.266C17.165 117.938 0 135.102 0 156.203c0 21.098 17.164 38.266 38.266 38.266 10.671 0 20.332-4.399 27.28-11.469l46.009 29.902a38.075 38.075 0 00-2.688 14.063c0 21.101 17.168 38.265 38.266 38.265 21.101 0 38.27-17.164 38.27-38.265 0-8.352-2.7-16.082-7.258-22.383l58.015-62.848a38.014 38.014 0 0019.844 5.559c14.258 0 26.715-7.848 33.297-19.445l37.558 12.199a38.324 38.324 0 00-.254 4.363c0 21.102 17.165 38.266 38.266 38.266 21.102 0 38.266-17.164 38.266-38.266a38.017 38.017 0 00-6.117-20.715zM38.265 179.262c-12.714 0-23.058-10.344-23.058-23.059s10.344-23.058 23.059-23.058 23.058 10.343 23.058 23.058-10.344 23.059-23.058 23.059zm108.868 70.761c-12.715 0-23.059-10.343-23.059-23.058s10.344-23.059 23.059-23.059c12.715 0 23.058 10.344 23.058 23.059s-10.343 23.058-23.058 23.058zM256 132.086c-12.715 0-23.059-10.344-23.059-23.059S243.285 85.97 256 85.97s23.059 10.344 23.059 23.058-10.344 23.059-23.059 23.059zM473.734 15.207c12.715 0 23.059 10.344 23.059 23.059s-10.344 23.058-23.059 23.058-23.058-10.344-23.058-23.058 10.344-23.059 23.058-23.059zM364.867 167.465c-12.715 0-23.058-10.34-23.058-23.055s10.343-23.058 23.058-23.058 23.059 10.343 23.059 23.058-10.344 23.055-23.059 23.055zm0 0"/></svg>