<svg height="640" viewBox="0 0 480 480.002" width="640" xmlns="http://www.w3.org/2000/svg"><path d="M288 272h-2.11c13.88-19.75 13.434-46.2-1.105-65.473l75.2-75.199V160h16v-48h-.07a7.796 7.796 0 00-2.247-5.691A7.79 7.79 0 00368 104h-48v16h28.688l-75.2 75.2c-19.808-14.954-47.133-14.954-66.945 0l-32.871-32.872c-3.121-3.125-8.188-3.125-11.313 0l-72 72 11.313 11.313L168 179.313l27.2 27.199c-14.54 19.277-14.981 45.738-1.087 65.488H192c-13.254 0-24 10.746-24 24v48c0 13.254 10.746 24 24 24a23.714 23.714 0 008-1.473V456a23.895 23.895 0 0014.2 21.945 23.9 23.9 0 0025.8-4.183 23.9 23.9 0 0025.8 4.183A23.889 23.889 0 00280 456v-89.473c2.563.95 5.27 1.446 8 1.473 13.254 0 24-10.746 24-24v-48c0-13.254-10.746-24-24-24zm-72 96v-77.48a55.282 55.282 0 0048 0V368zm64-128c0 22.09-17.906 40-40 40-22.09 0-40-17.91-40-40s17.91-40 40-40c22.082.027 39.973 17.918 40 40zm-88 112a8 8 0 01-8-8v-48a8 8 0 018-8h8v56a8 8 0 01-8 8zm32 112a8 8 0 01-8-8v-72h16v72a8 8 0 01-8 8zm32 0a8 8 0 01-8-8v-72h16v72a8 8 0 01-8 8zm40-120a8 8 0 01-16 0v-56h8a8 8 0 018 8zm0 0"/><path d="M472 48a8 8 0 008-8V8a8 8 0 00-8-8H8a8 8 0 00-8 8v32a8 8 0 008 8h24v304H8a8 8 0 00-8 8v32a8 8 0 008 8h136v-16H16v-16h128v-16H48V48h384v304H328v16h136v16H328v16h144a8 8 0 008-8v-32a8 8 0 00-8-8h-24V48zM16 16h448v16H16zm0 0"/><path d="M72 64h32v16H72zm0 0M120 64h80v16h-80zm0 0M72 96h32v16H72zm0 0M120 96h80v16h-80zm0 0M168 128h32v16h-32zm0 0M72 128h80v16H72zm0 0"/></svg>